<?xml version="1.0" encoding="utf-8"?>
<!-- Generator: Adobe Illustrator 25.0.0, SVG Export Plug-In . SVG Version: 6.00 Build 0)  -->
<svg version="1.1" id="Layer_1" xmlns="http://www.w3.org/2000/svg" xmlns:xlink="http://www.w3.org/1999/xlink" x="0px" y="0px"
	 viewBox="0 0 67 67" style="enable-background:new 0 0 67 67;" xml:space="preserve">
<style type="text/css">
	.st0{fill:#494949;}
</style>
<path class="st0" d="M67,4.1V0h-3.5L0,63.5v3.1L0.4,67h3.7L67,4.1z"/>
<path class="st0" d="M67,11.6L11.6,67h7.6L67,19.2V11.6z"/>
<path class="st0" d="M67,26.8L26.8,67h7.6L67,34.4V26.8z"/>
<path class="st0" d="M67,42L42,67h7.6L67,49.5V42z"/>
<path class="st0" d="M67,57.1L57.1,67h7.6l2.3-2.3V57.1z"/>
<path class="st0" d="M0,55.9L55.9,0h-7.6L0,48.3V55.9z"/>
<path class="st0" d="M0,40.7L40.7,0h-7.6L0,33.2V40.7z"/>
<path class="st0" d="M0,25.6L25.6,0H18L0,18V25.6z"/>
<path class="st0" d="M0,10.4L10.4,0H2.8L0,2.8V10.4z"/>
<path class="st0" d="M63.7,0.5h2.8v3.4L3.9,66.5H0.6l-0.1-0.1v-2.7L63.7,0.5z M12.9,66.5l53.6-53.6V19L19,66.5H12.9z M28,66.5
	L66.5,28v6.2L34.2,66.5H28z M43.2,66.5l23.3-23.3v6.2L49.3,66.5H43.2z M64.5,66.5h-6.2l8.2-8.2v6.2L64.5,66.5z M54.7,0.5L0.5,54.7
	v-6.2l48-48H54.7z M39.5,0.5l-39,39v-6.2L33.4,0.5H39.5z M24.4,0.5L0.5,24.4v-6.2L18.2,0.5H24.4z M9.2,0.5L0.5,9.2V3L3,0.5H9.2z"/>
</svg>
