<?xml version="1.0" encoding="utf-8"?>
<!-- Generator: Adobe Illustrator 25.0.0, SVG Export Plug-In . SVG Version: 6.00 Build 0)  -->
<svg version="1.1" id="Layer_1" xmlns="http://www.w3.org/2000/svg" xmlns:xlink="http://www.w3.org/1999/xlink" x="0px" y="0px"
	 viewBox="0 0 60 61" style="enable-background:new 0 0 60 61;" xml:space="preserve">
<style type="text/css">
	.st0{fill:#FFFFFF;}
</style>
<path class="st0" d="M52.2,5H7.8C7,5,6.3,5.3,5.8,5.9C5.3,6.4,5,7.1,5,7.8v44.5c0,0.4,0.1,0.7,0.2,1.1c0.1,0.3,0.3,0.6,0.6,0.9
	c0.3,0.3,0.6,0.5,0.9,0.6C7,55,7.4,55,7.8,55h24V35.7h-6.5v-7.5h6.5v-5.6c-0.1-1.3,0-2.7,0.5-3.9c0.4-1.3,1.1-2.4,2.1-3.4
	c0.9-1,2-1.7,3.3-2.2c1.2-0.5,2.6-0.7,3.9-0.6c1.9,0,3.9,0.1,5.8,0.3v6.8h-4c-3.2,0-3.8,1.5-3.8,3.7v4.8H47l-1,7.5h-6.5V55h12.8
	c0.4,0,0.7-0.1,1.1-0.2c0.3-0.1,0.6-0.3,0.9-0.6c0.3-0.3,0.5-0.6,0.6-0.9c0.1-0.3,0.2-0.7,0.2-1.1V7.8c0-0.4-0.1-0.7-0.2-1.1
	c-0.1-0.3-0.3-0.6-0.6-0.9c-0.3-0.3-0.6-0.5-0.9-0.6C53,5.1,52.6,5,52.2,5z"/>
</svg>
