<?xml version="1.0" encoding="utf-8"?>
<!-- Generator: Adobe Illustrator 25.0.0, SVG Export Plug-In . SVG Version: 6.00 Build 0)  -->
<svg version="1.1" id="Layer_1" xmlns="http://www.w3.org/2000/svg" xmlns:xlink="http://www.w3.org/1999/xlink" x="0px" y="0px"
	 viewBox="0 0 60 61" style="enable-background:new 0 0 60 61;" xml:space="preserve">
<style type="text/css">
	.st0{fill:#FFFFFF;}
</style>
<path class="st0" d="M43.3,13.7c-0.6,0-1.2,0.2-1.7,0.5c-0.5,0.3-0.9,0.8-1.1,1.3c-0.2,0.5-0.3,1.2-0.2,1.7c0.1,0.6,0.4,1.1,0.8,1.5
	c0.4,0.4,1,0.7,1.5,0.8c0.6,0.1,1.2,0.1,1.7-0.2c0.5-0.2,1-0.6,1.3-1.1c0.3-0.5,0.5-1.1,0.5-1.7c0-0.8-0.3-1.6-0.9-2.1
	C44.9,14,44.1,13.7,43.3,13.7z M54.8,19.7c0-2.1-0.4-4.1-1.1-6.1c-0.6-1.7-1.6-3.2-2.9-4.4C49.6,8,48,7,46.4,6.4
	c-1.9-0.7-4-1.1-6.1-1.2C37.7,5,36.8,5,30,5s-7.6,0-10.3,0.2c-2.1,0-4.1,0.4-6.1,1.2C12,7,10.4,8,9.2,9.2c-1.3,1.2-2.3,2.8-2.9,4.4
	c-0.7,1.9-1.1,4-1.2,6.1C5,22.4,5,23.2,5,30s0,7.7,0.2,10.3c0,2.1,0.4,4.1,1.2,6.1c0.6,1.7,1.6,3.2,2.9,4.4c1.2,1.3,2.8,2.3,4.4,2.9
	c1.9,0.7,4,1.1,6.1,1.2C22.4,55,23.2,55,30,55s7.7,0,10.3-0.1c2.1,0,4.1-0.4,6.1-1.2c1.7-0.6,3.2-1.6,4.4-2.9
	c1.3-1.2,2.3-2.8,2.9-4.4c0.7-1.9,1.1-4,1.1-6.1c0-2.6,0.2-3.5,0.2-10.3S55,22.4,54.8,19.7z M50.3,40c0,1.6-0.3,3.2-0.8,4.7
	c-0.4,1.1-1,2.1-1.9,2.9c-0.8,0.8-1.8,1.5-2.9,1.9c-1.5,0.5-3.1,0.8-4.7,0.8c-2.5,0.1-3.4,0.2-10,0.2s-7.5,0-10-0.2
	c-1.6,0-3.3-0.2-4.9-0.8c-1-0.4-2-1.1-2.8-1.9c-0.8-0.8-1.5-1.8-1.9-2.9c-0.6-1.5-0.9-3.1-1-4.8c0-2.5-0.2-3.4-0.2-10s0-7.5,0.2-10
	c0-1.6,0.3-3.2,0.9-4.7c0.4-1.1,1.1-2,2-2.8c0.8-0.9,1.7-1.5,2.8-2c1.5-0.5,3.1-0.8,4.8-0.9c2.5,0,3.4-0.1,10-0.1s7.5,0,10,0.1
	c1.6,0,3.2,0.3,4.7,0.9c1.1,0.4,2.2,1.1,3,2c0.8,0.8,1.5,1.7,1.9,2.8c0.6,1.5,0.8,3.1,0.8,4.7c0.1,2.5,0.2,3.4,0.2,10
	S50.5,37.5,50.3,40z M30,17.2c-2.5,0-5,0.8-7.1,2.2c-2.1,1.4-3.7,3.4-4.7,5.8c-1,2.3-1.2,4.9-0.7,7.4c0.5,2.5,1.7,4.8,3.5,6.6
	c1.8,1.8,4.1,3,6.6,3.5c2.5,0.5,5.1,0.2,7.4-0.7c2.3-1,4.3-2.6,5.8-4.7c1.4-2.1,2.2-4.6,2.2-7.1c0-1.7-0.3-3.4-1-4.9
	c-0.6-1.6-1.6-3-2.8-4.2c-1.2-1.2-2.6-2.1-4.2-2.8C33.4,17.5,31.7,17.2,30,17.2z M30,38.4c-1.6,0-3.3-0.5-4.6-1.4
	c-1.4-0.9-2.4-2.2-3.1-3.7c-0.6-1.5-0.8-3.2-0.5-4.8c0.3-1.6,1.1-3.1,2.3-4.3c1.2-1.2,2.6-2,4.3-2.3c1.6-0.3,3.3-0.2,4.8,0.5
	c1.5,0.6,2.8,1.7,3.7,3.1c0.9,1.4,1.4,3,1.4,4.6c0,1.1-0.2,2.2-0.6,3.2c-0.4,1-1,1.9-1.8,2.7c-0.8,0.8-1.7,1.4-2.7,1.8
	C32.2,38.2,31.1,38.4,30,38.4z"/>
</svg>
