<?xml version="1.0" encoding="utf-8"?>
<!-- Generator: Adobe Illustrator 25.0.0, SVG Export Plug-In . SVG Version: 6.00 Build 0)  -->
<svg version="1.1" id="Layer_1" xmlns="http://www.w3.org/2000/svg" xmlns:xlink="http://www.w3.org/1999/xlink" x="0px" y="0px"
	 viewBox="0 0 60 61" style="enable-background:new 0 0 60 61;" xml:space="preserve">
<style type="text/css">
	.st0{fill:#FFFFFF;}
</style>
<path class="st0" d="M55,14.5c-1.9,0.8-3.9,1.4-5.9,1.6c2.1-1.3,3.8-3.3,4.5-5.7c-2,1.2-4.2,2-6.5,2.5c-1.5-1.7-3.6-2.8-5.8-3.2
	c-2.2-0.4-4.5,0-6.5,1.1c-2,1.1-3.6,2.8-4.5,4.8c-0.9,2.1-1.1,4.4-0.6,6.6c-4.1-0.2-8.1-1.3-11.7-3.1c-3.6-1.8-6.8-4.4-9.4-7.6
	c-0.9,1.6-1.4,3.4-1.4,5.2c0,1.7,0.4,3.3,1.2,4.8c0.8,1.5,1.9,2.8,3.3,3.7C10,25.3,8.4,24.8,7,24v0.1c0,2.4,0.8,4.6,2.3,6.5
	c1.5,1.8,3.6,3.1,5.9,3.5c-0.9,0.3-1.8,0.4-2.8,0.4c-0.6,0-1.3-0.1-1.9-0.2c0.7,2,1.9,3.8,3.7,5.1c1.7,1.3,3.8,2,5.9,2
	c-3.6,2.8-8.1,4.4-12.6,4.4c-0.8,0-1.7,0-2.5-0.2c4.7,3,10.1,4.6,15.7,4.6c3.8,0,7.7-0.7,11.2-2.1c3.6-1.5,6.8-3.6,9.5-6.3
	c2.7-2.7,4.9-6,6.3-9.5C49.3,28.8,50,25,50,21.2c0-0.4,0-0.9,0-1.3C52,18.4,53.7,16.6,55,14.5z"/>
</svg>
