<svg xmlns="http://www.w3.org/2000/svg" xmlns:xlink="http://www.w3.org/1999/xlink" viewBox="0 0 4147.85 1759.59"><defs><style>.cls-1,.cls-10,.cls-11,.cls-12,.cls-13,.cls-14,.cls-15,.cls-16,.cls-17,.cls-18,.cls-19,.cls-20,.cls-21,.cls-22,.cls-23,.cls-24,.cls-25,.cls-26,.cls-27,.cls-28,.cls-29,.cls-3,.cls-30,.cls-31,.cls-32,.cls-33,.cls-34,.cls-35,.cls-36,.cls-37,.cls-38,.cls-39,.cls-4,.cls-40,.cls-41,.cls-42,.cls-43,.cls-44,.cls-45,.cls-46,.cls-47,.cls-48,.cls-49,.cls-5,.cls-50,.cls-6,.cls-7,.cls-8,.cls-9{fill:none;}.cls-2{clip-path:url(#clip-path);}.cls-10,.cls-11,.cls-12,.cls-13,.cls-14,.cls-15,.cls-16,.cls-17,.cls-18,.cls-19,.cls-20,.cls-21,.cls-22,.cls-23,.cls-24,.cls-25,.cls-26,.cls-27,.cls-28,.cls-29,.cls-3,.cls-30,.cls-31,.cls-32,.cls-33,.cls-34,.cls-35,.cls-36,.cls-37,.cls-38,.cls-39,.cls-4,.cls-40,.cls-41,.cls-42,.cls-43,.cls-44,.cls-45,.cls-46,.cls-47,.cls-48,.cls-49,.cls-5,.cls-50,.cls-6,.cls-7,.cls-8,.cls-9{stroke-linecap:round;stroke-linejoin:round;stroke-width:5.27px;}.cls-3{stroke:url(#White_Black);}.cls-4{stroke:url(#linear-gradient);}.cls-5{stroke:url(#linear-gradient-2);}.cls-6{stroke:url(#linear-gradient-3);}.cls-7{stroke:url(#linear-gradient-4);}.cls-8{stroke:url(#linear-gradient-5);}.cls-9{stroke:url(#linear-gradient-6);}.cls-10{stroke:url(#linear-gradient-7);}.cls-11{stroke:url(#linear-gradient-8);}.cls-12{stroke:url(#linear-gradient-9);}.cls-13{stroke:url(#linear-gradient-10);}.cls-14{stroke:url(#linear-gradient-11);}.cls-15{stroke:url(#linear-gradient-12);}.cls-16{stroke:url(#linear-gradient-13);}.cls-17{stroke:url(#linear-gradient-14);}.cls-18{stroke:url(#linear-gradient-15);}.cls-19{stroke:url(#linear-gradient-16);}.cls-20{stroke:url(#linear-gradient-17);}.cls-21{stroke:url(#linear-gradient-18);}.cls-22{stroke:url(#linear-gradient-19);}.cls-23{stroke:url(#linear-gradient-20);}.cls-24{stroke:url(#linear-gradient-21);}.cls-25{stroke:url(#linear-gradient-22);}.cls-26{stroke:url(#linear-gradient-23);}.cls-27{stroke:url(#linear-gradient-24);}.cls-28{stroke:url(#linear-gradient-25);}.cls-29{stroke:url(#linear-gradient-26);}.cls-30{stroke:url(#linear-gradient-27);}.cls-31{stroke:url(#linear-gradient-28);}.cls-32{stroke:url(#linear-gradient-29);}.cls-33{stroke:url(#linear-gradient-30);}.cls-34{stroke:url(#linear-gradient-31);}.cls-35{stroke:url(#linear-gradient-32);}.cls-36{stroke:url(#linear-gradient-33);}.cls-37{stroke:url(#linear-gradient-34);}.cls-38{stroke:url(#linear-gradient-35);}.cls-39{stroke:url(#linear-gradient-36);}.cls-40{stroke:url(#linear-gradient-37);}.cls-41{stroke:url(#linear-gradient-38);}.cls-42{stroke:url(#linear-gradient-39);}.cls-43{stroke:url(#linear-gradient-40);}.cls-44{stroke:url(#linear-gradient-41);}.cls-45{stroke:url(#linear-gradient-42);}.cls-46{stroke:url(#linear-gradient-43);}.cls-47{stroke:url(#linear-gradient-44);}.cls-48{stroke:url(#linear-gradient-45);}.cls-49{stroke:url(#linear-gradient-46);}.cls-50{stroke:#000;}</style><clipPath id="clip-path" transform="translate(3304.61 734.71)"><rect class="cls-1" width="272.96" height="47.33"/></clipPath><linearGradient id="White_Black" x1="-3033.4" y1="559.92" x2="746.3" y2="559.92" gradientTransform="matrix(0.98, -0.18, -0.18, -0.98, 87.61, 376.51)" gradientUnits="userSpaceOnUse"><stop offset="0" stop-color="#fff"/><stop offset="1"/></linearGradient><linearGradient id="linear-gradient" x1="-3035.06" y1="560.4" x2="745.39" y2="560.4" gradientTransform="matrix(0.98, -0.17, -0.17, -0.94, 85.75, 368.5)" gradientUnits="userSpaceOnUse"><stop offset="0" stop-color="#fafafa"/><stop offset="1"/></linearGradient><linearGradient id="linear-gradient-2" x1="-3036.53" y1="560.7" x2="744.59" y2="560.7" gradientTransform="matrix(0.99, -0.17, -0.17, -0.9, 83.88, 360.49)" gradientUnits="userSpaceOnUse"><stop offset="0" stop-color="#f4f4f4"/><stop offset="1"/></linearGradient><linearGradient id="linear-gradient-3" x1="-3037.78" y1="560.79" x2="743.93" y2="560.79" gradientTransform="matrix(0.99, -0.16, -0.16, -0.86, 82.02, 352.47)" gradientUnits="userSpaceOnUse"><stop offset="0" stop-color="#efefef"/><stop offset="1"/></linearGradient><linearGradient id="linear-gradient-4" x1="-3038.77" y1="560.64" x2="743.42" y2="560.64" gradientTransform="matrix(0.99, -0.16, -0.16, -0.82, 80.16, 344.46)" gradientUnits="userSpaceOnUse"><stop offset="0" stop-color="#e9e9e9"/><stop offset="1"/></linearGradient><linearGradient id="linear-gradient-5" x1="-3039.46" y1="560.22" x2="743.08" y2="560.22" gradientTransform="matrix(0.99, -0.16, -0.16, -0.77, 78.29, 336.45)" gradientUnits="userSpaceOnUse"><stop offset="0" stop-color="#e4e4e4"/><stop offset="1"/></linearGradient><linearGradient id="linear-gradient-6" x1="-3039.8" y1="559.47" x2="742.94" y2="559.47" gradientTransform="matrix(0.99, -0.15, -0.15, -0.73, 76.43, 328.44)" gradientUnits="userSpaceOnUse"><stop offset="0" stop-color="#dedede"/><stop offset="1"/></linearGradient><linearGradient id="linear-gradient-7" x1="-3039.73" y1="558.33" x2="743.05" y2="558.33" gradientTransform="matrix(0.99, -0.15, -0.15, -0.69, 74.56, 320.43)" gradientUnits="userSpaceOnUse"><stop offset="0" stop-color="#d9d9d9"/><stop offset="1"/></linearGradient><linearGradient id="linear-gradient-8" x1="-3039.16" y1="556.73" x2="743.45" y2="556.73" gradientTransform="matrix(0.99, -0.15, -0.15, -0.65, 72.7, 312.42)" gradientUnits="userSpaceOnUse"><stop offset="0" stop-color="#d4d4d4"/><stop offset="1"/></linearGradient><linearGradient id="linear-gradient-9" x1="-3037.99" y1="554.58" x2="744.2" y2="554.58" gradientTransform="matrix(0.99, -0.14, -0.14, -0.6, 70.83, 304.41)" gradientUnits="userSpaceOnUse"><stop offset="0" stop-color="#cecece"/><stop offset="1"/></linearGradient><linearGradient id="linear-gradient-10" x1="-3036.09" y1="551.75" x2="745.38" y2="551.75" gradientTransform="matrix(0.99, -0.14, -0.14, -0.56, 68.97, 296.4)" gradientUnits="userSpaceOnUse"><stop offset="0" stop-color="#c9c9c9"/><stop offset="1"/></linearGradient><linearGradient id="linear-gradient-11" x1="-3033.28" y1="548.08" x2="747.08" y2="548.08" gradientTransform="matrix(0.99, -0.13, -0.13, -0.52, 67.11, 288.39)" gradientUnits="userSpaceOnUse"><stop offset="0" stop-color="#c3c3c3"/><stop offset="1"/></linearGradient><linearGradient id="linear-gradient-12" x1="-3029.34" y1="543.37" x2="749.46" y2="543.37" gradientTransform="matrix(0.99, -0.13, -0.13, -0.48, 65.24, 280.38)" gradientUnits="userSpaceOnUse"><stop offset="0" stop-color="#bebebe"/><stop offset="1"/></linearGradient><linearGradient id="linear-gradient-13" x1="-3023.92" y1="537.31" x2="752.69" y2="537.31" gradientTransform="matrix(0.99, -0.13, -0.13, -0.44, 63.38, 272.37)" gradientUnits="userSpaceOnUse"><stop offset="0" stop-color="#b8b8b8"/><stop offset="1"/></linearGradient><linearGradient id="linear-gradient-14" x1="-3016.57" y1="529.49" x2="757.05" y2="529.49" gradientTransform="matrix(0.99, -0.12, -0.12, -0.39, 61.51, 264.36)" gradientUnits="userSpaceOnUse"><stop offset="0" stop-color="#b3b3b3"/><stop offset="1"/></linearGradient><linearGradient id="linear-gradient-15" x1="-3006.61" y1="519.3" x2="762.94" y2="519.3" gradientTransform="matrix(0.99, -0.12, -0.12, -0.35, 59.65, 256.35)" gradientUnits="userSpaceOnUse"><stop offset="0" stop-color="#aeaeae"/><stop offset="1"/></linearGradient><linearGradient id="linear-gradient-16" x1="-2992.98" y1="505.78" x2="770.96" y2="505.78" gradientTransform="matrix(0.99, -0.12, -0.12, -0.31, 57.79, 248.33)" gradientUnits="userSpaceOnUse"><stop offset="0" stop-color="#a8a8a8"/><stop offset="1"/></linearGradient><linearGradient id="linear-gradient-17" x1="-2974.01" y1="487.43" x2="782.12" y2="487.43" gradientTransform="matrix(0.99, -0.11, -0.11, -0.27, 55.92, 240.32)" gradientUnits="userSpaceOnUse"><stop offset="0" stop-color="#a3a3a3"/><stop offset="1"/></linearGradient><linearGradient id="linear-gradient-18" x1="-2946.77" y1="461.61" x2="798.11" y2="461.61" gradientTransform="matrix(0.99, -0.11, -0.11, -0.22, 54.06, 232.31)" gradientUnits="userSpaceOnUse"><stop offset="0" stop-color="#9d9d9d"/><stop offset="1"/></linearGradient><linearGradient id="linear-gradient-19" x1="-2905.74" y1="423.36" x2="822.15" y2="423.36" gradientTransform="matrix(0.99, -0.1, -0.1, -0.18, 52.19, 224.3)" gradientUnits="userSpaceOnUse"><stop offset="0" stop-color="#989898"/><stop offset="1"/></linearGradient><linearGradient id="linear-gradient-20" x1="-2911.67" y1="362.06" x2="861.15" y2="362.06" gradientTransform="matrix(0.99, -0.1, -0.1, -0.14, 50.33, 216.29)" gradientUnits="userSpaceOnUse"><stop offset="0" stop-color="#929292"/><stop offset="1"/></linearGradient><linearGradient id="linear-gradient-21" x1="-2951.83" y1="250.05" x2="933.06" y2="250.05" gradientTransform="matrix(0.99, -0.1, -0.1, -0.1, 48.47, 208.28)" gradientUnits="userSpaceOnUse"><stop offset="0" stop-color="#8d8d8d"/><stop offset="1"/></linearGradient><linearGradient id="linear-gradient-22" x1="-3047.62" y1="-14.01" x2="1103.69" y2="-14.01" gradientTransform="matrix(0.99, -0.09, -0.09, -0.06, 46.6, 200.27)" gradientUnits="userSpaceOnUse"><stop offset="0" stop-color="#888"/><stop offset="1"/></linearGradient><linearGradient id="linear-gradient-23" x1="-3576.21" y1="-1342.53" x2="1965.54" y2="-1342.53" gradientTransform="matrix(0.99, -0.09, -0.09, -0.01, 44.74, 192.26)" gradientUnits="userSpaceOnUse"><stop offset="0" stop-color="#828282"/><stop offset="1"/></linearGradient><linearGradient id="linear-gradient-24" x1="-5387.35" y1="2649.87" x2="2129.21" y2="2649.87" gradientTransform="matrix(0.99, -0.09, -0.09, 0.03, 42.87, 184.25)" gradientUnits="userSpaceOnUse"><stop offset="0" stop-color="#7d7d7d"/><stop offset="1"/></linearGradient><linearGradient id="linear-gradient-25" x1="-3913.56" y1="1321.97" x2="543.14" y2="1321.97" gradientTransform="matrix(0.99, -0.08, -0.08, 0.07, 41.01, 176.24)" gradientUnits="userSpaceOnUse"><stop offset="0" stop-color="#777"/><stop offset="1"/></linearGradient><linearGradient id="linear-gradient-26" x1="-3621.77" y1="1057.87" x2="404.13" y2="1057.87" gradientTransform="matrix(0.99, -0.08, -0.08, 0.11, 39.15, 168.23)" gradientUnits="userSpaceOnUse"><stop offset="0" stop-color="#727272"/><stop offset="1"/></linearGradient><linearGradient id="linear-gradient-27" x1="-3498.86" y1="945.74" x2="476.03" y2="945.74" gradientTransform="matrix(0.99, -0.07, -0.07, 0.16, 37.28, 160.22)" gradientUnits="userSpaceOnUse"><stop offset="0" stop-color="#6d6d6d"/><stop offset="1"/></linearGradient><linearGradient id="linear-gradient-28" x1="-3432.25" y1="760.43" x2="515.02" y2="760.43" gradientTransform="matrix(0.99, -0.07, -0.07, 0.2, 35.42, 152.21)" gradientUnits="userSpaceOnUse"><stop offset="0" stop-color="#676767"/><stop offset="1"/></linearGradient><linearGradient id="linear-gradient-29" x1="-3391.23" y1="616.92" x2="539.06" y2="616.92" gradientTransform="matrix(0.99, -0.07, -0.07, 0.24, 33.55, 144.19)" gradientUnits="userSpaceOnUse"><stop offset="0" stop-color="#626262"/><stop offset="1"/></linearGradient><linearGradient id="linear-gradient-30" x1="-3363.99" y1="518.09" x2="555.05" y2="518.09" gradientTransform="matrix(0.99, -0.06, -0.06, 0.28, 31.69, 136.18)" gradientUnits="userSpaceOnUse"><stop offset="0" stop-color="#5c5c5c"/><stop offset="1"/></linearGradient><linearGradient id="linear-gradient-31" x1="-3345.02" y1="446.05" x2="566.2" y2="446.05" gradientTransform="matrix(0.99, -0.06, -0.06, 0.32, 29.83, 128.17)" gradientUnits="userSpaceOnUse"><stop offset="0" stop-color="#575757"/><stop offset="1"/></linearGradient><linearGradient id="linear-gradient-32" x1="-3331.4" y1="391.36" x2="574.23" y2="391.36" gradientTransform="matrix(1, -0.06, -0.06, 0.37, 27.96, 120.16)" gradientUnits="userSpaceOnUse"><stop offset="0" stop-color="#515151"/><stop offset="1"/></linearGradient><linearGradient id="linear-gradient-33" x1="-3321.43" y1="348.52" x2="580.12" y2="348.52" gradientTransform="matrix(1, -0.05, -0.05, 0.41, 26.1, 112.15)" gradientUnits="userSpaceOnUse"><stop offset="0" stop-color="#4c4c4c"/><stop offset="1"/></linearGradient><linearGradient id="linear-gradient-34" x1="-3314.08" y1="314.14" x2="584.48" y2="314.14" gradientTransform="matrix(1, -0.05, -0.05, 0.45, 24.23, 104.14)" gradientUnits="userSpaceOnUse"><stop offset="0" stop-color="#474747"/><stop offset="1"/></linearGradient><linearGradient id="linear-gradient-35" x1="-3308.67" y1="286.02" x2="587.71" y2="286.02" gradientTransform="matrix(1, -0.04, -0.04, 0.49, 22.37, 96.13)" gradientUnits="userSpaceOnUse"><stop offset="0" stop-color="#414141"/><stop offset="1"/></linearGradient><linearGradient id="linear-gradient-36" x1="-3304.72" y1="262.65" x2="590.08" y2="262.65" gradientTransform="matrix(1, -0.04, -0.04, 0.54, 20.5, 88.12)" gradientUnits="userSpaceOnUse"><stop offset="0" stop-color="#3c3c3c"/><stop offset="1"/></linearGradient><linearGradient id="linear-gradient-37" x1="-3301.92" y1="242.96" x2="591.79" y2="242.96" gradientTransform="matrix(1, -0.04, -0.04, 0.58, 18.64, 80.11)" gradientUnits="userSpaceOnUse"><stop offset="0" stop-color="#363636"/><stop offset="1"/></linearGradient><linearGradient id="linear-gradient-38" x1="-3300.02" y1="226.2" x2="592.96" y2="226.2" gradientTransform="matrix(1, -0.03, -0.03, 0.62, 16.78, 72.1)" gradientUnits="userSpaceOnUse"><stop offset="0" stop-color="#313131"/><stop offset="1"/></linearGradient><linearGradient id="linear-gradient-39" x1="-3298.85" y1="211.79" x2="593.71" y2="211.79" gradientTransform="matrix(1, -0.03, -0.03, 0.66, 14.91, 64.09)" gradientUnits="userSpaceOnUse"><stop offset="0" stop-color="#2b2b2b"/><stop offset="1"/></linearGradient><linearGradient id="linear-gradient-40" x1="-3298.28" y1="199.31" x2="594.11" y2="199.31" gradientTransform="matrix(1, -0.03, -0.03, 0.7, 13.05, 56.08)" gradientUnits="userSpaceOnUse"><stop offset="0" stop-color="#262626"/><stop offset="1"/></linearGradient><linearGradient id="linear-gradient-41" x1="-3298.2" y1="188.42" x2="594.22" y2="188.42" gradientTransform="matrix(1, -0.02, -0.02, 0.75, 11.18, 48.06)" gradientUnits="userSpaceOnUse"><stop offset="0" stop-color="#212121"/><stop offset="1"/></linearGradient><linearGradient id="linear-gradient-42" x1="-3298.54" y1="178.87" x2="594.09" y2="178.87" gradientTransform="matrix(1, -0.02, -0.02, 0.79, 9.32, 40.05)" gradientUnits="userSpaceOnUse"><stop offset="0" stop-color="#1b1b1b"/><stop offset="1"/></linearGradient><linearGradient id="linear-gradient-43" x1="-3299.23" y1="170.44" x2="593.75" y2="170.44" gradientTransform="matrix(1, -0.01, -0.01, 0.83, 7.46, 32.04)" gradientUnits="userSpaceOnUse"><stop offset="0" stop-color="#161616"/><stop offset="1"/></linearGradient><linearGradient id="linear-gradient-44" x1="-3300.22" y1="162.97" x2="593.24" y2="162.97" gradientTransform="matrix(1, -0.01, -0.01, 0.87, 5.59, 24.03)" gradientUnits="userSpaceOnUse"><stop offset="0" stop-color="#101010"/><stop offset="1"/></linearGradient><linearGradient id="linear-gradient-45" x1="-3301.47" y1="156.33" x2="592.57" y2="156.33" gradientTransform="matrix(1, -0.01, -0.01, 0.92, 3.73, 16.02)" gradientUnits="userSpaceOnUse"><stop offset="0" stop-color="#0b0b0b"/><stop offset="1"/></linearGradient><linearGradient id="linear-gradient-46" x1="-3302.94" y1="150.39" x2="591.78" y2="150.39" gradientTransform="matrix(1, 0, 0, 0.96, 1.86, 8.01)" gradientUnits="userSpaceOnUse"><stop offset="0" stop-color="#050505"/><stop offset="1"/></linearGradient></defs><g id="Layer_2" data-name="Layer 2"><g id="Layer_1-2" data-name="Layer 1"><g class="cls-2"><path class="cls-3" d="M840.6,362.82c-22,133-141.44,244.3-305.39,306.52-261.2,99.12-624.27,70.73-893-175.77C-961.08-59.72-1385.37-329.2-1658.13-114.51c-192,151.14-290.92,431.33-477.65,546.8-156.88,97-365.53,122.13-497.23-27.86-110.73-126.12-212.89-932.94-526.79-971.89" transform="translate(3304.61 734.71)"/><path class="cls-4" d="M-3162.83-545.77c309,44.86,411.94,835.26,522.73,958.83,133.45,147.06,340.26,119,495.85,20C-1960,317.19-1861.36,37.64-1670.5-110.75-1399-321.59-974.91-43.84-380,502c269.39,247.41,631.61,269.9,890.62,168.54,165.62-67.54,281.22-195.71,324.63-331" transform="translate(3304.61 734.71)"/><path class="cls-5" d="M-3165.85-524.08C-2861.7-473.31-2758,300.67-2647.2,421.7-2512,565.82-2307,534.81-2152.72,433.84-1971,317.57-1872.56,38.64-1682.88-107c270.31-207,694.14,79,1280.67,617.45,270,248.32,631.37,264.91,888.2,161.31,167.29-72.87,279.08-217.93,343.87-355.55" transform="translate(3304.61 734.71)"/><path class="cls-6" d="M-3168.88-502.39c299.28,56.69,403.7,814.24,514.58,932.72,137,141.19,340.1,107.23,493.11,4.29,179.16-116.68,277.43-395,465.94-537.84,269.07-203.14,692.68,91.15,1270.85,622.14C-153.76,768.15,206.74,778.84,461.38,673c169-78.19,276.94-240.15,363.11-380.07" transform="translate(3304.61 734.71)"/><path class="cls-7" d="M-3171.9-480.7C-2877.5-418.1-2772.33,323-2661.4,439c138.74,138.27,340,101.35,491.74-3.56C-1993,318.32-1895,40.66-1707.63-99.45c267.85-199.29,691.23,103.26,1261,626.82,271.26,250.14,630.9,254.93,883.36,146.85C607.4,590.7,711.57,411.85,819.12,269.64" transform="translate(3304.61 734.71)"/><path class="cls-8" d="M-3174.93-459c289.53,68.51,395.46,793.22,506.44,906.61,140.49,135.33,339.93,95.46,490.36-11.42C-2004,318.69-1906.16,41.66-1720-95.69c266.62-195.44,689.77,115.38,1251.22,631.51C-196.9,786.88,161.89,785.75,412.16,675.44c172.3-88.84,272.66-284.58,401.59-429.1" transform="translate(3304.61 734.71)"/><path class="cls-9" d="M-3177.95-437.32c284.65,74.42,391.33,782.71,502.36,893.55,142.25,132.4,339.85,89.58,489-19.28C-2015,319.07-1917.37,42.67-1732.38-91.92-1467-283.51-1044.06,35.57-491,544.27c272.5,252,630.44,244.94,878.53,132.39,174-94.16,270.51-306.8,420.82-453.61" transform="translate(3304.61 734.71)"/><path class="cls-10" d="M-3181-415.63c279.78,80.33,387.22,772.19,498.29,880.49,144,129.47,339.77,83.7,487.62-27.13C-2026,319.44-1928.57,43.67-1744.75-88.16-1480.59-275.9-1057.89,51.45-513.17,552.72-240,805.6,117,792.67,363,677.88c175.63-99.49,268.38-329,440.06-478.13" transform="translate(3304.61 734.71)"/><path class="cls-11" d="M-3184-393.94c274.9,86.25,383.09,761.68,494.21,867.43,145.78,126.54,339.68,77.82,486.25-35C-2037,319.82-1939.77,44.68-1757.12-84.39c262.93-183.89,685.4,151.72,1221.76,645.57,273.76,253.78,630,235,873.7,117.92,177.3-104.81,266.24-351.24,459.3-502.65" transform="translate(3304.61 734.71)"/><path class="cls-12" d="M-3187-372.25c270,92.16,379,751.17,490.14,854.38,147.54,123.6,339.6,71.93,484.87-42.84,164-119.1,261-393.6,442.52-519.92,261.71-180,684,163.85,1212,650.26,274.38,254.69,629.74,230,871.28,110.69,179-110.14,264.1-373.45,478.54-527.16" transform="translate(3304.61 734.71)"/><path class="cls-13" d="M-3190-350.57C-2924.91-252.49-2815.2,390.1-2704,490.76c149.29,120.67,339.51,66,483.49-50.7C-2059,320.57-1962.18,46.69-1781.87-76.86-1521.4-253-1099.38,99.1-579.74,578.08c275,255.6,629.51,225,868.86,103.46,180.64-115.46,262-395.67,497.78-551.68" transform="translate(3304.61 734.71)"/><path class="cls-14" d="M-3193.08-328.88c260.27,104,370.73,730.16,482,828.27,151,117.74,339.43,60.17,482.12-58.55,159-119.9,255.58-393.14,434.71-513.94C-1535-245.44-1113.21,115-601.93,586.53-326.3,843,27.35,806.5,264.51,682.76,446.82,562,524.33,264.87,781.53,106.57" transform="translate(3304.61 734.71)"/><path class="cls-15" d="M-3196.1-307.19c255.39,109.9,366.61,719.65,477.92,815.21,152.81,114.81,339.35,54.29,480.75-66.4C-2081,321.32-1984.58,48.71-1806.62-69.33-1548.6-237.82-1127,130.86-624.12,595c276.25,257.42,629,215,864,89,184-126.11,257.68-440.11,536.26-600.71" transform="translate(3304.61 734.71)"/><path class="cls-16" d="M-3199.13-285.5c250.52,115.82,362.49,709.14,473.85,802.16,154.58,111.87,339.27,48.4,479.38-74.26C-2092,321.69-1995.78,49.71-1819-65.57c256.79-164.64,678.13,212.31,1172.69,669,276.87,258.33,628.81,210,861.61,81.76C400.94,553.77,470.83,222.88,770.79,60" transform="translate(3304.61 734.71)"/><path class="cls-17" d="M-3202.15-263.81c245.64,121.73,358.37,698.63,469.78,789.1,156.33,108.94,339.18,42.52,478-82.12,151.4-121.1,247.39-392.45,423-505C-1575.81-222.59-1154.7,162.62-668.5,611.88c277.49,259.24,628.57,205,859.19,74.53C378,549.66,444.08,201.88,765.43,36.68" transform="translate(3304.61 734.71)"/><path class="cls-18" d="M-3205.18-242.12c240.77,127.64,354.25,688.12,465.71,776,158.09,106,339.1,36.64,476.63-90C-2114,322.44-2018.19,51.73-1843.75-58-1589.41-215-1168.53,178.5-690.69,620.34c278.12,260.14,628.34,200,856.77,67.29,189-142.07,251.25-506.75,594-674.25" transform="translate(3304.61 734.71)"/><path class="cls-19" d="M-3208.2-220.43c235.89,133.55,350.13,677.61,461.63,763,159.85,103.08,339,30.76,475.26-97.82,146.36-121.91,241.92-392,415.19-499C-1603-207.36-1182.36,194.39-712.88,628.79c278.74,261.05,628.1,195,854.35,60.06,190.65-147.4,249.11-529,613.22-698.76" transform="translate(3304.61 734.71)"/><path class="cls-20" d="M-3211.23-198.74c231,139.46,346,667.1,457.56,749.93,161.61,100.14,338.94,24.87,473.88-105.69,143.84-122.3,239.2-391.76,411.3-496,251.87-149.23,672.3,260.78,1133.41,687.75,279.37,262,627.88,190,851.94,52.83,192.32-152.72,247-551.18,632.46-723.28" transform="translate(3304.61 734.71)"/><path class="cls-21" d="M-3214.25-177c226.14,145.37,341.89,656.59,453.49,736.87,163.37,97.21,338.85,19,472.5-113.54,141.32-122.71,236.47-391.54,407.39-493C-1630.22-192.13-1210,226.15-757.27,645.69c280,262.88,627.65,185,849.52,45.6,194-158,244.84-573.4,651.7-747.79" transform="translate(3304.61 734.71)"/><path class="cls-22" d="M-3217.28-155.36C-2996-4.07-2879.51,490.72-2767.86,568.45c165.13,94.28,338.76,13.1,471.13-121.39C-2157.93,324-2063,55.75-1893.24-43c249.42-141.53,669.39,285,1113.78,697.12,280.61,263.79,627.41,180,847.1,38.37C263.3,529.14,310.34,96.89,738.58-79.8" transform="translate(3304.61 734.71)"/><path class="cls-23" d="M-3220.3-133.68C-3003.91,23.53-2886.65,501.9-2775,577.09c166.89,91.34,338.68,7.21,469.76-129.25,136.27-123.52,231-391.08,399.58-487,248.2-137.69,667.94,297.12,1104,701.8,281.24,264.7,627.18,175,844.69,31.14C240.36,525,283.59,75.89,733.21-103.09" transform="translate(3304.61 734.71)"/><path class="cls-24" d="M-3223.33-112c211.51,163.12,329.53,625.07,441.27,697.71,168.65,88.41,338.6,1.33,468.39-137.11C-2179.92,324.7-2085.4,57.76-1918-35.44-1671-169.28-1251.51,273.79-823.84,671-542,936.65-196.9,841.09,18.43,695c199-174,238.41-640.05,709.41-821.34" transform="translate(3304.61 734.71)"/><path class="cls-25" d="M-3226.35-90.3c206.63,169,325.4,614.56,437.2,684.65,170.41,85.49,338.51-4.55,467-145,131.23-124.32,225.54-390.62,391.77-481.07,245.74-130,665,321.36,1084.34,711.17C-563.55,946-219.32,844.54-6.18,696.17,194.48,516.83,230.09,33.9,722.47-149.68" transform="translate(3304.61 734.71)"/><path class="cls-26" d="M-3229.37-68.61c201.75,174.94,321.28,604.05,433.12,671.59,172.17,82.56,338.43-10.43,465.64-152.81,128.7-124.72,222.81-390.39,387.87-478.08C-1698.23-154-1279.17,305.56-868.22,688c283.1,267.42,626.48,160,837.43,9.44C171.54,512.73,203.34,12.9,717.1-173" transform="translate(3304.61 734.71)"/><path class="cls-27" d="M-3232.4-46.92c196.88,180.86,317.16,593.54,429.05,658.54C-2629.42,691.24-2465,595.3-2339.08,451c126.18-125.13,220.07-390.17,384-475.1C-1711.84-146.44-1293,321.44-890.41,696.4c283.73,268.33,626.24,155.06,835,2.21,204-190,232-706.71,767.13-894.89" transform="translate(3304.61 734.71)"/><path class="cls-28" d="M-3235.42-25.23c192,186.77,313,583,425,645.48,175.69,76.69,338.27-22.2,462.9-168.53,123.65-125.52,217.34-389.93,380.06-472.1,242-118.44,660.66,357.7,1054.89,725.23,284.35,269.24,626,150.07,832.59-5C125.66,504.52,149.84-29.09,706.36-219.57" transform="translate(3304.61 734.71)"/><path class="cls-29" d="M-3238.45-3.54c187.13,192.68,308.92,572.52,420.9,632.42C-2640.1,702.64-2479.36,600.8-2356,452.5c121.14-125.93,214.62-389.7,376.17-469.12C-1739-131.21-1320.66,353.2-934.8,713.3c285,270.15,625.78,145.08,830.18-12.25C102.72,500.41,123.09-50.09,701-242.87" transform="translate(3304.61 734.71)"/><path class="cls-30" d="M-3241.47,18.15c182.25,198.59,304.8,562,416.83,619.36,179.21,70.83,338.1-34,460.14-184.23C-2245.88,327-2152.61,63.8-1992.24-12.85c239.6-110.74,657.75,381.93,1035.25,734.6,285.6,271.06,625.55,140.09,827.76-19.48,209-206,225.57-773.36,824.85-968.43" transform="translate(3304.61 734.71)"/><path class="cls-31" d="M-3244.5,39.84c177.38,204.5,300.68,551.5,412.76,606.31,181,67.89,338-39.85,458.77-192.1,116.09-126.73,209.15-389.24,368.36-463.14C-1766.25-116-1348.32,385-979.18,730.2c286.23,272,625.32,135.09,825.35-26.71C56.84,492.21,69.59-92.09,690.25-289.46" transform="translate(3304.61 734.71)"/><path class="cls-32" d="M-3247.52,61.53C-3075,272-2951,602.52-2838.84,654.78c182.73,65,337.94-45.73,457.4-199.95C-2267.87,327.7-2175,65.82-2017-5.32c237.14-103,654.84,406.17,1015.62,744,286.85,272.88,625.08,130.1,822.93-33.94C33.9,488.1,42.85-113.08,684.88-312.75" transform="translate(3304.61 734.71)"/><path class="cls-33" d="M-3250.55,83.21c167.63,216.34,292.44,530.48,404.61,580.2,184.49,62,337.85-51.61,456-207.8,111-127.54,203.69-388.79,360.55-457.17,235.91-99.19,653.38,418.29,1005.8,748.67,287.47,273.78,624.85,125.1,820.51-41.18C11,484,16.1-134.08,679.51-336" transform="translate(3304.61 734.71)"/><path class="cls-34" d="M-3253.57,104.9c162.75,222.25,288.31,520,400.54,567.14,186.24,59.1,337.76-57.49,454.65-215.65,108.52-127.94,201-388.56,356.65-454.18,234.68-95.34,651.92,430.4,996,753.35,288.09,274.7,624.61,120.11,818.09-48.41C-12,479.89-10.65-155.08,674.14-359.35" transform="translate(3304.61 734.71)"/><path class="cls-35" d="M-3256.6,126.59c157.87,228.16,284.2,509.46,396.47,554.09,188,56.16,337.68-63.38,453.28-223.52,106-128.34,198.23-388.33,352.74-451.19,233.45-91.48,650.47,442.52,986.17,758,288.72,275.61,624.38,115.12,815.67-55.64,217.35-232.58,214.87-884.45,921-1091" transform="translate(3304.61 734.71)"/><path class="cls-36" d="M-3259.62,148.28c153,234.07,280.07,499,392.39,541,189.77,53.23,337.6-69.26,451.91-231.37,103.47-128.74,195.49-388.1,348.84-448.2,232.22-87.64,649,454.63,976.35,762.72C-800.79,1049-466,882.59-276.88,709.59-57.86,471.68-64.15-197.07,663.4-405.94" transform="translate(3304.61 734.71)"/><path class="cls-37" d="M-3262.65,170c148.12,240,276,488.44,388.32,528,191.53,50.3,337.52-75.14,450.53-239.22,101-129.15,192.77-387.87,344.94-445.22,231-83.78,647.56,466.75,966.54,767.41,290,277.43,623.91,105.13,810.83-70.1C-80.8,467.58-90.9-218.07,658-429.23" transform="translate(3304.61 734.71)"/><path class="cls-38" d="M-3265.67,191.66c143.24,245.9,271.83,477.93,384.25,514.92,193.28,47.36,337.43-81,449.15-247.08,98.44-129.55,190-387.65,341-442.23,229.76-79.94,646.1,478.87,956.71,772.09C-843.93,1067.7-510.83,889.5-326.09,712-103.74,463.48-117.65-239.07,652.67-452.53" transform="translate(3304.61 734.71)"/><path class="cls-39" d="M-3268.7,213.35c138.37,251.81,267.72,467.42,380.18,501.86,195,44.43,337.35-86.91,447.78-254.94C-2344.83,330.33-2253.43,72.86-2103.61,21-1875.07-55-1459,512-1156.71,797.81c291.21,279.25,623.45,95.15,806-84.57,224-253.87,206.3-973.31,998-1189.06" transform="translate(3304.61 734.71)"/><path class="cls-40" d="M-3271.72,235c133.49,257.72,263.59,456.91,376.1,488.8,196.81,41.5,337.27-92.79,446.41-262.79C-2355.82,330.7-2264.63,73.87-2116,24.8c227.31-72.24,643.19,503.1,937.08,781.46,291.84,280.16,623.22,90.16,803.59-91.8C-149.62,455.27-171.15-281.06,641.93-499.12" transform="translate(3304.61 734.71)"/><path class="cls-41" d="M-3274.75,256.73c128.62,263.63,259.48,446.4,372,475.74,198.57,38.57,337.19-98.67,445-270.64,90.87-130.75,181.84-387,329.33-433.27,226.08-68.38,641.73,515.22,927.26,786.16,292.46,281.06,623,85.16,801.17-99,227.36-264.52,202-1017.74,1036.48-1238.1" transform="translate(3304.61 734.71)"/><path class="cls-42" d="M-3277.77,278.42c123.74,269.55,255.35,435.89,368,462.69,200.32,35.63,337.1-104.56,443.66-278.5C-2377.81,331.45-2287,75.88-2140.73,32.33c224.85-64.54,640.28,527.33,917.45,790.84,293.08,282,622.75,80.17,798.75-106.27,229-269.84,199.88-1040,1055.72-1262.61" transform="translate(3304.61 734.71)"/><path class="cls-43" d="M-3280.8,300.11c118.87,275.46,251.23,425.38,363.89,449.63,202.08,32.7,337-110.44,442.29-286.36,85.82-131.55,176.38-386.49,321.52-427.29,223.62-60.68,638.82,539.45,907.63,795.53,293.7,282.88,622.52,75.17,796.33-113.5C-218.44,443-251.39-344.06,625.82-569" transform="translate(3304.61 734.71)"/><path class="cls-44" d="M-3283.82,321.79c114,281.38,247.11,414.88,359.81,436.58,203.85,29.78,336.93-116.32,440.92-294.21,83.29-132,173.65-386.27,317.61-424.3,222.4-56.84,637.37,551.57,897.82,800.21,294.33,283.79,622.28,70.18,793.91-120.73C-241.38,438.85-278.14-365,620.45-592.3" transform="translate(3304.61 734.71)"/><path class="cls-45" d="M-3286.85,343.48c109.12,287.29,243,404.37,355.74,423.52,205.61,26.85,336.85-122.2,439.54-302.06,80.78-132.36,170.92-386,313.72-421.32,221.16-53,635.91,563.69,888,804.9,294.95,284.7,622.05,65.19,791.5-128C-264.32,434.75-304.89-386,615.08-615.6" transform="translate(3304.61 734.71)"/><path class="cls-46" d="M-3289.87,365.17C-3185.64,658.37-3051,759-2938.21,775.64c207.37,23.91,336.77-128.09,438.17-309.93,78.26-132.76,168.19-385.8,309.81-418.32C-1970.29-1.75-1555.77,623.19-1312,857c295.57,285.61,621.82,60.2,789.08-135.19C-287.26,430.64-331.64-407,609.71-638.89" transform="translate(3304.61 734.71)"/><path class="cls-47" d="M-3292.9,386.86c99.36,299.12,234.75,383.35,347.6,397.41,209.12,21,336.68-134,436.79-317.78C-2432.78,333.33-2343,80.91-2202.6,51.15c218.71-45.28,633,587.92,868.37,814.27C-1038,1152-712.65,920.63-547.57,723-310.2,426.54-358.39-428,604.34-662.19" transform="translate(3304.61 734.71)"/><path class="cls-48" d="M-3295.92,408.55c94.48,305,230.63,372.84,343.52,384.35C-2741.52,811-2615.8,653.05-2517,467.27c73.21-133.57,162.73-385.35,302-412.35,217.49-41.44,631.55,600,858.55,819,296.83,287.43,621.36,50.21,784.25-149.66C-333.14,422.44-385.14-449,599-685.48" transform="translate(3304.61 734.71)"/><path class="cls-49" d="M-3298.95,430.24c89.61,310.94,226.51,362.33,339.45,371.29,212.65,15.12,336.52-145.74,434.05-333.48,70.69-134,160-385.13,298.1-409.37,216.25-37.58,630.09,612.15,848.73,823.65,297.45,288.34,621.12,45.21,781.83-156.89C-356.08,418.33-411.89-470,593.6-708.78" transform="translate(3304.61 734.71)"/><path class="cls-50" d="M-3302,451.93c84.73,316.85,222.39,351.82,335.37,358.24,214.41,12.18,336.44-151.63,432.68-341.35,68.16-134.37,157.26-384.89,294.2-406.37,215-33.73,628.63,624.26,838.91,828.33C-1102.74,1180-779.92,931-621.4,726.66-379,414.23-438.64-491,588.23-732.08" transform="translate(3304.61 734.71)"/></g></g></g></svg>