<svg xmlns="http://www.w3.org/2000/svg" viewBox="0 0 119.97 119.97"><defs><style>.cls-1{fill:#fff;}.cls-2{fill:#c8c8c8;}.cls-3{fill:#2d2d2d;}</style></defs><g id="Layer_2" data-name="Layer 2"><g id="object"><rect class="cls-1" y="99.97" width="19.99" height="20"/><rect class="cls-2" x="20" y="99.97" width="19.99" height="20"/><rect class="cls-3" x="39.99" y="99.97" width="19.99" height="20"/><rect class="cls-3" x="59.99" y="99.97" width="19.99" height="20"/><rect x="79.98" y="99.97" width="19.99" height="20"/><rect x="99.97" y="99.97" width="19.99" height="20"/><rect class="cls-1" x="20" y="79.98" width="19.99" height="19.99"/><rect class="cls-2" x="39.99" y="79.98" width="19.99" height="19.99"/><rect class="cls-3" x="59.99" y="79.98" width="19.99" height="19.99"/><rect class="cls-3" x="79.98" y="79.98" width="19.99" height="19.99"/><rect x="99.97" y="79.98" width="19.99" height="19.99"/><rect class="cls-1" x="39.99" y="59.99" width="19.99" height="19.99"/><rect class="cls-2" x="59.99" y="59.99" width="19.99" height="19.99"/><rect class="cls-3" x="79.98" y="59.99" width="19.99" height="19.99"/><rect class="cls-3" x="99.97" y="59.99" width="19.99" height="19.99"/><rect class="cls-1" x="59.99" y="39.99" width="19.99" height="19.99"/><rect class="cls-2" x="79.98" y="39.99" width="19.99" height="19.99"/><rect class="cls-3" x="99.97" y="39.99" width="19.99" height="19.99"/><rect class="cls-1" x="79.98" y="20" width="19.99" height="20"/><rect class="cls-2" x="99.97" y="20" width="19.99" height="20"/><rect class="cls-1" x="99.97" width="19.99" height="19.99"/></g></g></svg>